<?xml version="1.0" encoding="iso-8859-1"?>
<!-- Uploaded to: SVG Repo, www.svgrepo.com, Generator: SVG Repo Mixer Tools -->
<svg version="1.1" id="Layer_1" xmlns="http://www.w3.org/2000/svg" xmlns:xlink="http://www.w3.org/1999/xlink" 
	 viewBox="0 0 512 512" xml:space="preserve">
<path style="fill:#F1F4FB;" d="M495.432,392.818H16.568c-4.722,0-8.551-3.829-8.551-8.551V127.733c0-4.722,3.829-8.551,8.551-8.551
	h478.864c4.722,0,8.551,3.829,8.551,8.551v256.534C503.983,388.99,500.155,392.818,495.432,392.818z"/>
<g>
	<path style="fill:#D5DCED;" d="M76.426,153.386c0,4.722-15.313,8.551-34.205,8.551v51.307c18.892,0,34.205,3.829,34.205,8.551
		H179.04v-68.409H76.426z"/>
	<path style="fill:#D5DCED;" d="M435.574,221.795c0-4.722,15.313-8.551,34.205-8.551v-51.307c-18.892,0-34.205-3.829-34.205-8.551
		H332.96v68.409H435.574z"/>
</g>
<path style="fill:#AFB9D2;" d="M495.432,392.818H16.568c-4.722,0-8.551-3.829-8.551-8.551V256h495.967v128.267
	C503.983,388.99,500.155,392.818,495.432,392.818z"/>
<rect x="179.04" y="119.182" style="fill:#FFF082;" width="153.921" height="136.818"/>
<rect x="179.04" y="256" style="fill:#FFDC64;" width="153.921" height="136.818"/>
<path d="M93.528,195.608h34.205c4.427,0,8.017-3.589,8.017-8.017s-3.589-8.017-8.017-8.017H93.528c-4.427,0-8.017,3.589-8.017,8.017
	S89.101,195.608,93.528,195.608z"/>
<path d="M418.472,179.574h-34.205c-4.427,0-8.017,3.589-8.017,8.017s3.589,8.017,8.017,8.017h34.205
	c4.427,0,8.017-3.589,8.017-8.017S422.899,179.574,418.472,179.574z"/>
<path d="M495.432,111.165H16.568C7.432,111.165,0,118.597,0,127.733v256.534c0,9.136,7.432,16.568,16.568,16.568h478.864
	c9.136,0,16.568-7.432,16.568-16.568V127.733C512,118.597,504.568,111.165,495.432,111.165z M171.023,316.392H16.033v-18.171h154.99
	V316.392z M171.023,282.188H16.033v-18.171h154.99V282.188z M16.033,332.426h154.99v18.171H16.033V332.426z M187.056,264.017
	h137.887v120.785H187.056V264.017z M171.023,213.779H80.776c-2.683-2.467-6.831-4.409-12.425-5.807
	c-5.105-1.276-11.357-2.139-18.113-2.52v-35.719c6.756-0.382,13.008-1.244,18.115-2.52c5.592-1.398,9.741-3.34,12.424-5.807h90.247
	V213.779z M187.056,127.198h137.887v120.785H187.056V127.198z M340.977,161.403h90.247c2.683,2.467,6.831,4.409,12.424,5.807
	c5.106,1.276,11.358,2.139,18.115,2.52v35.719c-6.757,0.382-13.008,1.244-18.113,2.52c-5.592,1.398-9.742,3.34-12.425,5.807h-90.247
	V161.403z M340.977,298.221h154.99v18.171h-154.99V298.221z M340.977,282.188v-18.171h154.99v18.171H340.977z M340.977,332.426
	h154.99v18.171h-154.99V332.426z M495.967,127.733v120.251h-154.99v-18.171h94.597c3.27,0,6.082-1.958,7.329-4.765
	c3.126-1.526,12.723-3.786,26.875-3.786c4.427,0,8.017-3.589,8.017-8.017v-51.307c0-4.427-3.589-8.017-8.017-8.017
	c-14.151,0-23.748-2.26-26.875-3.786c-1.247-2.807-4.06-4.765-7.329-4.765h-94.597v-18.171h154.455
	C495.727,127.198,495.967,127.438,495.967,127.733z M16.568,127.198h154.455v18.171H76.426c-3.27,0-6.082,1.957-7.329,4.765
	c-3.128,1.526-12.724,3.786-26.875,3.786c-4.427,0-8.017,3.589-8.017,8.017v51.307c0,4.427,3.589,8.017,8.017,8.017
	c14.151,0,23.748,2.26,26.875,3.786c1.247,2.807,4.06,4.765,7.329,4.765h94.597v18.171H16.033V127.733
	C16.033,127.438,16.273,127.198,16.568,127.198z M16.033,384.267V366.63h154.99v18.171H16.568
	C16.273,384.802,16.033,384.562,16.033,384.267z M495.432,384.802H340.977V366.63h154.99v17.637
	C495.967,384.562,495.727,384.802,495.432,384.802z"/>
<path d="M281.653,179.574h-51.307c-4.427,0-8.017,3.589-8.017,8.017s3.589,8.017,8.017,8.017h51.307
	c4.427,0,8.017-3.589,8.017-8.017S286.081,179.574,281.653,179.574z"/>
</svg>