<?xml version="1.0" encoding="iso-8859-1"?>
<!-- Uploaded to: SVG Repo, www.svgrepo.com, Generator: SVG Repo Mixer Tools -->
<svg version="1.1" id="Layer_1" xmlns="http://www.w3.org/2000/svg" xmlns:xlink="http://www.w3.org/1999/xlink" 
	 viewBox="0 0 512 512" xml:space="preserve">
<path style="fill:#AFB9D2;" d="M503.172,397.241H8.828c-4.875,0-8.828-3.953-8.828-8.828v-26.483h512v26.483
	C512,393.289,508.047,397.241,503.172,397.241z"/>
<path style="fill:#D5DCED;" d="M503.172,379.586H8.828c-4.875,0-8.828-3.953-8.828-8.828v-26.483h512v26.483
	C512,375.634,508.047,379.586,503.172,379.586z"/>
<path style="fill:#AFB9D2;" d="M503.172,361.931H8.828c-4.875,0-8.828-3.953-8.828-8.828v-26.483h512v26.483
	C512,357.978,508.047,361.931,503.172,361.931z"/>
<path style="fill:#D5DCED;" d="M503.172,344.276H8.828c-4.875,0-8.828-3.953-8.828-8.828v-26.483h512v26.483
	C512,340.323,508.047,344.276,503.172,344.276z"/>
<path style="fill:#AFB9D2;" d="M503.172,326.621H8.828c-4.875,0-8.828-3.953-8.828-8.828V291.31h512v26.483
	C512,322.668,508.047,326.621,503.172,326.621z"/>
<path style="fill:#D5DCED;" d="M503.172,308.966H8.828c-4.875,0-8.828-3.953-8.828-8.828v-26.483h512v26.483
	C512,305.013,508.047,308.966,503.172,308.966z"/>
<path style="fill:#AFB9D2;" d="M503.172,291.31H8.828c-4.875,0-8.828-3.953-8.828-8.828v-35.31h512v35.31
	C512,287.358,508.047,291.31,503.172,291.31z"/>
<path style="fill:#D5DCED;" d="M503.172,273.655H8.828c-4.875,0-8.828-3.953-8.828-8.828v-17.655h512v17.655
	C512,269.703,508.047,273.655,503.172,273.655z"/>
<path style="fill:#F1F4FB;" d="M503.172,256H8.828C3.953,256,0,252.047,0,247.172V123.586c0-4.875,3.953-8.828,8.828-8.828h494.345
	c4.875,0,8.828,3.953,8.828,8.828v123.586C512,252.047,508.047,256,503.172,256z"/>
<path style="fill:#E4EAF8;" d="M70.621,220.69c0-4.875-15.809-8.828-35.31-8.828v-52.966c19.501,0,35.31-3.953,35.31-8.828h370.759
	c0,4.875,15.809,8.828,35.31,8.828v52.966c-19.501,0-35.31,3.953-35.31,8.828H70.621z"/>
<path style="fill:#9BF57D;" d="M441.379,229.517H70.621c-3.526,0-6.569-2.065-7.982-5.056c-3.31-1.535-13.096-3.772-27.328-3.772
	c-4.879,0-8.828-3.953-8.828-8.828v-52.966c0-4.875,3.948-8.828,8.828-8.828c14.232,0,24.018-2.237,27.328-3.772
	c1.414-2.991,4.457-5.056,7.982-5.056h370.759c3.526,0,6.569,2.065,7.982,5.056c3.31,1.535,13.095,3.772,27.328,3.772
	c4.879,0,8.828,3.953,8.828,8.828v52.966c0,4.875-3.948,8.828-8.828,8.828c-14.232,0-24.018,2.237-27.328,3.772
	C447.948,227.453,444.905,229.517,441.379,229.517z M79.448,220.69h0.086H79.448z M75.345,211.862h361.311
	c6.535-5.884,19.742-7.97,31.207-8.595v-35.776c-11.466-0.625-24.672-2.711-31.207-8.595H75.345
	c-6.535,5.884-19.742,7.97-31.207,8.595v35.776C55.604,203.892,68.81,205.978,75.345,211.862z"/>
<g>
	<path style="fill:#8CE16E;" d="M123.586,194.207h-35.31c-4.879,0-8.828-3.953-8.828-8.828c0-4.875,3.948-8.828,8.828-8.828h35.31
		c4.879,0,8.828,3.953,8.828,8.828C132.414,190.254,128.466,194.207,123.586,194.207z"/>
	<path style="fill:#8CE16E;" d="M423.724,194.207h-35.31c-4.879,0-8.828-3.953-8.828-8.828c0-4.875,3.948-8.828,8.828-8.828h35.31
		c4.879,0,8.828,3.953,8.828,8.828C432.552,190.254,428.604,194.207,423.724,194.207z"/>
</g>
<rect x="176.552" y="114.759" style="fill:#FFF082;" width="158.897" height="141.241"/>
<g>
	<rect x="176.552" y="256" style="fill:#FFDC64;" width="158.897" height="141.241"/>
	<path style="fill:#FFDC64;" d="M282.483,194.207h-52.966c-4.879,0-8.828-3.953-8.828-8.828c0-4.875,3.948-8.828,8.828-8.828h52.966
		c4.879,0,8.828,3.953,8.828,8.828C291.31,190.254,287.362,194.207,282.483,194.207z"/>
</g>
</svg>